<?xml version="1.0" encoding="utf-8"?>
<!-- Generator: Adobe Illustrator 22.1.0, SVG Export Plug-In . SVG Version: 6.00 Build 0)  -->
<svg version="1.1" id="design" xmlns="http://www.w3.org/2000/svg" xmlns:xlink="http://www.w3.org/1999/xlink" x="0px" y="0px"
	 viewBox="0 0 500 500" style="enable-background:new 0 0 500 500;" xml:space="preserve">
<style type="text/css">
	.st0{fill:#FFFFFF;}
	.st1{fill:#ED1C24;}
	.st2{fill:#D31C24;}
	.st3{fill:#FF7B24;}
	.st4{fill:#FF5324;}
	.st5{fill:#2175FB;}
	.st6{fill:#232323;}
	.st7{fill:#F4D37E;}
	.st8{fill:#FF5924;}
	.st9{fill:#24223C;}
	.st10{fill:#5065FC;}
	.st11{fill:#495CE6;}
	.st12{fill:#FFBD24;}
	.st13{fill:#FF8C24;}
	.st14{fill:#E6E7E8;}
	.st15{fill:#D1D3D4;}
	.st16{fill:#791C24;}
	.st17{fill:#E0E9FF;}
	.st18{fill:#CCDBFF;}
	.st19{fill:#96B3FF;}
	.st20{clip-path:url(#SVGID_2_);fill:#F4B97E;}
	.st21{clip-path:url(#SVGID_4_);fill:#F4B97E;}
	.st22{clip-path:url(#SVGID_6_);fill:#24223C;}
	.st23{clip-path:url(#SVGID_8_);fill:#628AEC;}
	.st24{clip-path:url(#SVGID_10_);fill:#5065FC;}
	.st25{clip-path:url(#SVGID_12_);fill:#5065FC;}
	.st26{clip-path:url(#SVGID_14_);fill:#F4B97E;}
	.st27{clip-path:url(#SVGID_16_);fill:#F4B97E;}
	.st28{fill:#FB1518;}
	.st29{fill:#F4D87E;}
	.st30{fill:#0B53FF;}
	.st31{fill:#7D1C24;}
	.st32{fill:#FFA424;}
</style>
<g>
	<path class="st0" d="M98.7,450.6c-62.9-31.1-126.1-29.7-67.1-118.2s59-98.3,35.1-127.8C12.3,137.4,68.1,97.8,113,83.8
		c82-25.6,88.5-23.9,137.7-57.6s139.1-35.1,177,2.8s50.6,137.7,7,181.2c-32.4,32.4,26.7,127.8,43.5,148.9S467,508,322.3,478.5
		S98.7,450.6,98.7,450.6z"/>
	<path class="st1" d="M183.1,329c-0.7-2.3-1.5-4.6-2.3-6.8L183.1,329z"/>
	<path class="st1" d="M180.8,342.1v-20c-4-11-8.8-20.6-13.1-27.7c-4.8,5.5-6.4,22.5-6.4,22.5c0.5-17.6,2.2-22.8,2.4-28.6
		c-7.1-9.9-17.9-15.3-26.4-21.2c3.4,20.9,3.2,26.1,3.2,26.1c-1.1-12.5-4.9-21.2-6.9-28.6c-21.7-13.7-33-10.1-33-10.1
		c0.2,8.8,2.9,28.4,3.7,35.9c9.2,8.4,21.9,16.7,21.9,16.7c-6.6-2.3-15.2-7.8-21.3-12c1.4,10.9,1.3,9.1,3.9,17.8
		c9.1,9,27.7,19.2,27.7,19.2c-8.1-2.1-19.3-8.6-25.4-12.4c5.3,14.7,12.4,26.4,21,36.9c9.5,4.5,19.6,7.9,19.6,7.9
		c-4.6-0.3-10.5-1.8-15.8-3.5c10.1,11.4,22.1,21.6,35.3,33l13.4,5.8l4.2-21.4c1.9-17.1-0.9-34.2-5.5-49.2L180.8,342.1z"/>
	<path class="st2" d="M170.2,362.9c2.5,5.1,4.9,10.3,7.1,15.6c2.2,5.3,4.1,10.9,5.3,16.6l-0.2,0.1c-1.4-5.7-3.4-11.1-5.7-16.3
		c-2.3-5.2-4.8-10.3-7.5-15.3c-5.3-10-11-19.6-16.7-29.3c-5.7-9.7-11.7-19.1-17-29.1c-2.7-5-5.3-10-7.8-15.2
		c-2.5-5.1-4.8-10.4-6.9-15.8l0.2-0.1c5.3,10,10.9,19.7,16.5,29.5c5.6,9.7,11.1,19.6,16.6,29.4C159.6,342.8,165.1,352.7,170.2,362.9
		z"/>
	<path class="st3" d="M141.3,388.8c2-21.1,4.2-29.8,3.3-36.9c-11.3-10.1-24-17-36.5-21.8c8.7,24.6,4.5,41.1,4.5,41.1
		c0.9-17.2-5.9-34.4-9.9-43c-31.5-10.5-60.1-7.8-60.1-7.8c2,10.7,4.3,20.6,6.9,29.6c13.8,7.6,32.3,14.1,32.3,14.1
		c-9.2-0.9-21.7-5.1-30.6-8.5c4,13,8.6,24.2,13.8,34c13.9,8.3,40.5,15.5,40.5,15.5c-11.1-0.2-27.3-4.9-36.1-7.8
		c9.9,16.5,21.7,28.8,35.1,39.1c13.5,2.8,27.5,4,27.5,4c-6.2,1-14.2,0.9-21.7,0.3c15.7,11,33.5,20,53.3,30.1l18.8,3.3l1.3-27.5
		c-1.6-41.6-14.9-69.5-32.7-88.3C145.8,366.3,141.3,388.8,141.3,388.8z"/>
	<path class="st4" d="M178.7,468.9c-2.9-6.6-6.7-12.6-10.8-18.3c-4.1-5.7-8.4-11.2-12.9-16.5c-9-10.7-18.4-20.9-27.9-31
		c-9.5-10.2-19.2-20-28.3-30.7c-4.5-5.3-9-10.7-13.3-16.3c-4.3-5.6-8.4-11.3-12.3-17.3l0.3-0.2c9,10.7,18.3,21,27.7,31.3
		c9.4,10.2,18.5,20.8,27.8,31.2c9.3,10.4,18.5,20.9,27.3,31.9c4.4,5.5,8.6,11.2,12.5,17.1s7.5,12.1,10.3,18.8H178.7z"/>
	<path class="st5" d="M425.2,419.6c1.7-1.5,3.3-3,4.8-4.5L425.2,419.6z"/>
	<path class="st3" d="M413.1,421.3l17-6.3c7.7-7.5,13.9-15.4,18.2-22c-6.6-3.1-21.6,0.6-21.6,0.6c15-5.1,20.2-5,25.1-6.6
		c5.5-10.3,5.7-22.9,7.3-33.4c-16.3,10-20.8,11.4-20.8,11.4c10.1-5.1,15.9-11.7,21.4-16c2.9-26.3-4.7-36.6-4.7-36.6
		c-7.4,3-22.8,11.9-28.9,15.1c-3.4,11.9-5.3,27.4-5.3,27.4c-0.7-7.4,0.4-17.9,1.6-25.4c-8.7,4.9-7.2,4.2-13.5,9.5
		c-3.9,12.1-5.1,34.1-5.1,34.1c-1.5-8.8-0.5-22.3,0.3-29.7c-10.3,10-17.3,20.9-22.7,32.9c0,11.1,1.2,22.4,1.2,22.4
		c-1.6-4.8-2.7-11.2-3.4-17.1c-5.6,13.9-9.3,29.2-13.7,46.2l0.4,15.4l19.8-2.5c15.2-3.4,28.6-11.7,39.4-21.1L413.1,421.3z"/>
	<path class="st4" d="M391.3,417.1c-3.3,4.2-6.7,8.3-10.4,12.1c-3.6,3.9-7.5,7.5-11.9,10.6l-0.2-0.2c4.2-3.2,8-6.9,11.5-10.9
		s6.8-8.1,9.9-12.4c6.3-8.5,12.2-17.3,18.1-26.1c5.9-8.8,11.5-17.8,17.8-26.4c3.1-4.3,6.3-8.5,9.7-12.7c3.3-4.1,6.8-8.2,10.5-12
		l0.2,0.2c-6.3,8.5-12.3,17.2-18.3,26c-5.9,8.8-12.1,17.4-18.2,26.1C404,400.1,397.9,408.8,391.3,417.1z"/>
	<path class="st1" d="M397.9,384.3c-0.8,1.4-1.6,2.8-2.4,4.2L397.9,384.3z M395.4,388.6c-5.6,9-13.2,17.8-23.2,23.5l-13.5,6.1
		l-3.7-10.8c-0.7-12.9-1.3-24.6-0.4-35.6c1.8,4.1,4,8.3,6.2,11.4c0,0-3.3-7.7-5.8-15.6c1.2-9.7,3.8-18.9,8.9-28.2
		c1.1,5.4,3.3,15.1,6.3,21c0,0-4-15.8-3.8-25.3c3.2-5.2,2.4-4.4,7.4-9.7c0.9,5.6,2.3,13.2,4.4,18.3c0,0-2-11.4-2.2-20.6
		c3.6-3.6,12.6-13.2,17.1-17c0,0,7.6,5.6,11.3,24.9c-3,4.2-5.6,10.2-11.7,16c0,0,2.9-2,12.2-12.6c1.2,7.8,3.8,16.7,2.2,25.2
		c-3.1,2.2-6.8,3.3-16.3,10.2c0,0,9.8-6,15.1-5.2c-1.6,5.6-4.2,12.5-8,19.5l-10.6,8.1L395.4,388.6z"/>
	<path class="st2" d="M378.6,371.8c2.4-7.5,4.9-14.9,7.1-22.4c2.3-7.5,4.7-15,7.2-22.4l-0.2-0.1c-1.8,3.5-3.4,7.1-4.8,10.8
		c-1.5,3.7-2.8,7.4-4.1,11.1c-2.6,7.4-4.6,15-6.8,22.6c-2.2,7.5-4.4,15.1-7.1,22.4c-1.3,3.7-2.7,7.4-4.3,10.9
		c-1.6,3.6-3.4,7.1-5.7,10.2l0.2,0.1c2.4-3.1,4.4-6.6,6.1-10.1s3.3-7.2,4.7-10.8C373.8,386.8,376.2,379.3,378.6,371.8z"/>
	<path class="st1" d="M408.5,463.5c14.4,4.7,20.2,7.6,25.3,8c9.1-7.3,16.2-16.1,21.8-25.1c-18.8,3.1-29.6-2.5-29.6-2.5
		c11.9,3.3,25.2,0.5,31.9-1.4c13-22.9,16.2-45.5,16.2-45.5c-7.9,0-15.2,0.3-22,1c-7.8,9.6-15.6,23-15.6,23c2.2-7,7.4-16.1,11.4-22.5
		c-9.8,1.2-18.5,3.1-26.3,5.7c-8.3,9.5-18.1,29.1-18.1,29.1c2.1-8.6,8.3-20.4,11.9-26.9c-13.3,5.3-24,12.6-33.7,21.5
		c-4.3,10-7.7,20.8-7.7,20.8c0.4-4.9,1.9-11.1,3.6-16.8c-10.5,10.6-20,23.1-30.6,36.9l-5.6,14.1l19.1,5c29.4,4.9,51.4-1.3,67.8-12.4
		C423.5,470.3,408.5,463.5,408.5,463.5z"/>
	<path class="st2" d="M345.6,480.7c5.1-1.3,10-3.3,14.8-5.7c4.7-2.3,9.4-4.9,13.9-7.6c9.1-5.4,17.9-11.2,26.7-17.1
		c8.8-5.9,17.5-12,26.6-17.5c4.5-2.7,9.1-5.4,13.8-7.9c4.7-2.5,9.4-4.9,14.3-7l0.1,0.2c-9.1,5.4-18,11.1-26.9,16.9
		s-17.9,11.3-26.8,17c-9,5.7-18,11.3-27.2,16.5c-4.6,2.6-9.4,5-14.2,7.2c-4.8,2.2-9.8,4.1-15,5.2L345.6,480.7z"/>
	<path class="st4" d="M292.2,55.1h-20.4c-4.1,0-7.4-3.3-7.4-7.4V33.3c0-4.1,3.3-7.4,7.4-7.4h20.4c4.1,0,7.4,3.3,7.4,7.4v14.4
		C299.5,51.8,296.2,55.1,292.2,55.1z"/>
	<path class="st0" d="M298,28.8l-9.6,9.6c-0.2,0.2-0.3,0.3-0.5,0.5c-1.7,1.5-3.8,2.2-5.9,2.2s-4.2-0.7-5.9-2.2
		c-0.2-0.1-0.3-0.3-0.5-0.5l-0.7-0.7l-8.9-8.9c0.3-0.4,0.7-0.8,1.1-1.2l8.9,8.9l0.7,0.7c0.2,0.2,0.3,0.3,0.5,0.5
		c2.8,2.3,6.8,2.3,9.5,0c0.2-0.1,0.4-0.3,0.5-0.5l0.7-0.7l8.9-8.9C297.2,27.9,297.6,28.3,298,28.8z"/>
	<path class="st0" d="M276.7,37.2c0.2,0.2,0.3,0.3,0.5,0.5l-1.2,1.2L264.8,50c-0.2-0.6-0.3-1.3-0.4-2l10.4-10.4l1.2-1.2L276.7,37.2z
		"/>
	<path class="st0" d="M299.5,48.1c0,0.7-0.2,1.3-0.4,2l-11.3-11.3l-1.2-1.2c0.2-0.1,0.4-0.3,0.5-0.5l0.7-0.7l1.2,1.2L299.5,48.1z"/>
	<path class="st6" d="M50.6,474.1c0,0-18.5,1-22.7,2.9s0.6,11.5,3.6,11.9c2.2,0.3,20.5-1.6,23.1-4.2L50.6,474.1z"/>
	<path class="st7" d="M50.6,474.1c0,0-8,1.7-9.5,3.7c-1.5,1.9-1.8,7.2-0.6,7.5c1.1,0.2,2.5,2,14.1-0.6L50.6,474.1z"/>
	<path class="st8" d="M50.4,474l4.1,10.8l76.2-14c7.4-1.6,20.3-8.5,18.6-14.3c-2-7.1-7.8-11.6-15.1-9.6L50.4,474z"/>
	<path class="st9" d="M80.3,335.7c5.8-5.5,16-7.1,23.6,12c4.6,11.6,10,7.2,13.5,13.8c2.4,4.6,0,10.4,1.5,15.3
		c2.2,7.3,11.7,7,11.3,20.3c-0.4,16.3-76.8,22-93.6,3.3c-6.8-7.5,2.2-12.8,5.5-17.8c2.8-4.1-2-8.2-1.8-14.9
		c0.2-6.7,12-12.6,13.6-16.3c2.2-5.1,0.4-15.8,12.2-18.9C73.2,330.6,80.3,335.7,80.3,335.7z"/>
	<path class="st7" d="M79.9,347.1c11.3,0,16.4,3.6,14.8,15.8c-1.9,14.3-5.2,16.7-8,17.9l1.2,7.1l10.3,5.5l3,6.8l-18,14.4l-17.7-13.1
		l2.1-9.2l6.5-5.8l0.3-5.7c-2.7-2-4.6-4.3-5.8-14.7C67.4,355.5,66.8,347.1,79.9,347.1z"/>
	<path class="st9" d="M81.6,348.2c0,0,0.9,8.9,16.2,9.5l0.6-1.7c0.2-0.5,0.3-1,0.3-1.6c0.2-4.5-2.7-8.6-7.1-9.9l-10.3-3l-10,3.1
		c-4.9,1.2-8,6-7.2,11l0,0C64,355.7,79.4,361.2,81.6,348.2z"/>
	<path class="st10" d="M81.7,404.9c0,0,9.3-7.4,8.8-11s-2.5-6.1-2.5-6.1l14.8,8.2c0,0,5.8,40.9-0.5,53.4l-3.4,5.5
		c0,0-15.2,7.9-34.7-0.9l-4.4-8.9l-2.2-41.6c0,0,1.8-8,2.7-8.6s13.9-8.6,13.9-8.6s-1.6,4.7-0.3,9C75.2,399.6,81.7,404.9,81.7,404.9z
		"/>
	<path class="st11" d="M68.2,421.8c0,0,6.8,5.8,11.1,4.5c0,0-4.8,2.6-10.3,0C63.5,423.6,68.2,421.8,68.2,421.8z"/>
	<path class="st11" d="M71.3,427.8l1.2,8.5l0.8,13.7l0.7,7.4c0,0-5.5-0.6-6.5-1.8C66.5,454.4,71.3,427.8,71.3,427.8z"/>
	<path class="st11" d="M92.5,427.7l-0.4,6.6l-0.2,9.1l3.5,13c0,0,2.1-0.2,3.1-1.3C99.3,453.9,92.5,427.7,92.5,427.7z"/>
	<path class="st11" d="M96.5,422.5c0,0-7.1,5.5-11.3,4c0,0,4.7,2.9,10.3,0.5C101.1,424.6,96.5,422.5,96.5,422.5z"/>
	<path class="st12" d="M124.1,462.6c-0.9,0-19.9,5.4-24.2,4.9c0,0-5.8-21.7-6.3-27.4c-0.5-5.7-4.3-48.6-5.6-52.3
		c0,0,22.9,8.6,25.2,12.5s5.7,21,5.7,21l1.8,6.4c0,0-14.1,4.7-17,4c-0.4,3.6,3,12.3,3,12.3L124.1,462.6z"/>
	<path class="st12" d="M74.2,386.4c0,0-2.1,79.6-8,86.1L46,470l6.1-7.2l4.4-17.4c0,0,2.6-12.8,3.2-16c-2.6,0.5-14.7-0.7-14.7-0.7
		l2.5-6.1c0,0,3-16.3,5.2-23.2C58.7,394.5,65.8,390.5,74.2,386.4z"/>
	<path class="st13" d="M101.6,410.6c0,0,1,12.7,2.1,21.1c1,7.8,2.4,10.8,3,12.3c0.6,1.3,1.3,2.7,1.3,2.7l-3.8-2.8l-2.6-11.7V410.6z"
		/>
	<polygon class="st13" points="59.6,409.6 59.8,429.4 56.6,445.4 60.5,442.9 61.1,433.6 	"/>
	<path class="st7" d="M121.5,440.9l-3.6-12.2c-2.4,0.6-7.6,1.9-10.7,2.9l3.2,8.2l-3.1,2.9l-8.5,8l3.6,5.7l6.1-4l11.4-7.4
		C121.2,444.1,121.8,442.5,121.5,440.9z"/>
	<path class="st7" d="M60.2,444l-0.8-0.7l-4.2-3.8l2.7-10c-3.3,0-9.2-0.4-11.4-0.6l-2.4,12c-0.3,1.6,0.4,3.2,1.8,4.1l13.2,8.2
		l4.5,2.8l3.5-5.8L60.2,444z"/>
	<path class="st3" d="M119.8,473.8l-4,10.9L37,470.9c-7.5-1.5-16.1-7.5-16.2-11.9c-0.2-6.1,8.6-13.8,16-11.9L119.8,473.8z"/>
	<path class="st6" d="M119.8,473.8c0,0,19.5,1.3,23.8,3s-1.5,10.7-4.5,11.2c-2.2,0.4-20.6-0.7-23.3-3.3L119.8,473.8z"/>
	<path class="st7" d="M119.8,473.8c0,0,7.7,1.6,9.3,3.5s2,7.2,0.9,7.4c-1.1,0.3-2.4,2.1-14.2,0L119.8,473.8z"/>
	<path class="st14" d="M113.2,427.2l-4.1,32H57.5l-0.6-4.8l-3.5-27.3c0-2,1.6-3.6,3.6-3.6h52.5C111.6,423.6,113.2,425.2,113.2,427.2
		z"/>
	<path class="st15" d="M109.1,462.3H57.5c-0.6,0-1-0.5-1-1v-1c0-0.6,0.5-1,1-1h51.6c0.6,0,1,0.5,1,1v1
		C110.1,461.8,109.7,462.3,109.1,462.3z"/>
	<path class="st2" d="M340.8,133.6h-12.3c17.3,0,31.4,14,31.4,31.4v302.9c0,17.3-14,31.4-31.4,31.4h12.3c17.3,0,31.4-14,31.4-31.4
		V165C372.1,147.7,358.1,133.6,340.8,133.6z"/>
	<path class="st4" d="M328.5,499.3H200.3c-17.3,0-31.4-14-31.4-31.4V165c0-17.3,14-31.4,31.4-31.4h128.2c17.3,0,31.4,14,31.4,31.4
		v302.9C359.8,485.2,345.8,499.3,328.5,499.3z"/>
	<path class="st16" d="M343.1,457.9H185.6c-5,0-9.1-4.1-9.1-9.1V165.3c0-5,4.1-9.1,9.1-9.1h157.5c5,0,9.1,4.1,9.1,9.1v283.4
		C352.2,453.8,348.1,457.9,343.1,457.9z"/>
	<path class="st2" d="M274.6,486.2h-20.5c-4.7,0-8.6-3.8-8.6-8.6l0,0c0-4.7,3.8-8.6,8.6-8.6h20.5c4.7,0,8.6,3.8,8.6,8.6l0,0
		C283.2,482.3,279.4,486.2,274.6,486.2z"/>
	<path class="st0" d="M176.5,306.3v142.5c0,5,4.1,9.1,9.1,9.1h157.5c5,0,9.1-4.1,9.1-9.1V306.3H176.5z"/>
	<path class="st17" d="M324.8,358.6H205.1c-4.7,0-8.5-3.8-8.5-8.5l0,0c0-4.7,3.8-8.5,8.5-8.5h119.6c4.7,0,8.5,3.8,8.5,8.5l0,0
		C333.3,354.8,329.5,358.6,324.8,358.6z"/>
	<path class="st17" d="M324.8,394.2H205.1c-4.7,0-8.5-3.8-8.5-8.5l0,0c0-4.7,3.8-8.5,8.5-8.5h119.6c4.7,0,8.5,3.8,8.5,8.5l0,0
		C333.3,390.4,329.5,394.2,324.8,394.2z"/>
	<path class="st17" d="M278.3,429.8h-73.2c-4.7,0-8.5-3.8-8.5-8.5l0,0c0-4.7,3.8-8.5,8.5-8.5h73.2c4.7,0,8.5,3.8,8.5,8.5l0,0
		C286.8,425.9,283,429.8,278.3,429.8z"/>
	<path class="st10" d="M241.2,313.4c-1.2,0-2.2,1-2.2,2.2v11.1c0,0.4,0.6,0.6,0.8,0.2l1.2-1.9c0.4-0.5,1.1-0.8,1.7-0.8h9
		c1.2,0,2.2-1,2.2-2.2v-6.3c0-1.2-1-2.2-2.2-2.2h-10.5V313.4z"/>
	<rect x="241.3" y="315.6" class="st18" width="10.7" height="1.1"/>
	<rect x="241.3" y="318" class="st18" width="10.7" height="1.1"/>
	<rect x="241.3" y="320.3" class="st18" width="10.7" height="1.1"/>
	<path class="st2" d="M203.3,319.6c0.4-0.6,0.6-1.3,0.6-2.1c0-2.1-1.7-3.9-3.9-3.9c-1.3,0-2.5,0.7-3.2,1.7c-0.7-1-1.9-1.7-3.2-1.7
		c-2.1,0-3.9,1.7-3.9,3.9c0,0.9,0.3,1.7,0.8,2.3l0,0l6,6.7C196.5,326.5,203.1,319.9,203.3,319.6L203.3,319.6L203.3,319.6z"/>
	<path class="st19" d="M207.6,318.1c0.4-0.1,0.8-0.3,1.1-0.6c0.4-0.2,0.7-0.5,1-0.9h0.7v7h-0.9V318c-0.1,0.1-0.2,0.2-0.3,0.2
		s-0.2,0.2-0.4,0.2c-0.1,0.1-0.3,0.1-0.4,0.2c-0.2,0.1-0.3,0.1-0.4,0.2L207.6,318.1z"/>
	<path class="st19" d="M212.8,321.3c0.1-0.3,0.3-0.6,0.5-1s0.5-0.8,0.8-1.2c0.3-0.4,0.6-0.8,0.9-1.2c0.3-0.4,0.6-0.8,1-1.1h0.9v4.4
		h0.8v0.8h-0.8v1.8H216V322h-3.1L212.8,321.3L212.8,321.3z M215.9,317.8c-0.2,0.2-0.4,0.5-0.6,0.7c-0.2,0.3-0.4,0.5-0.6,0.8
		c-0.2,0.3-0.4,0.6-0.5,0.9c-0.2,0.3-0.3,0.6-0.5,0.9h2.2L215.9,317.8L215.9,317.8z"/>
	<path class="st19" d="M219.7,323.7c0-0.5,0.1-1.1,0.3-1.7s0.3-1.2,0.6-1.7c0.2-0.6,0.5-1.1,0.7-1.6c0.3-0.5,0.5-0.9,0.8-1.2h-3.4
		v-0.8h4.5v0.8c-0.2,0.3-0.5,0.6-0.7,1.1c-0.3,0.4-0.5,0.9-0.8,1.5c-0.2,0.6-0.4,1.1-0.6,1.8c-0.2,0.6-0.3,1.3-0.3,1.9L219.7,323.7
		L219.7,323.7z"/>
	<path class="st19" d="M224.3,320.2c0-1.2,0.2-2.1,0.6-2.7c0.4-0.6,1-0.9,1.7-0.9s1.3,0.3,1.7,0.9s0.6,1.5,0.6,2.7s-0.2,2.1-0.6,2.7
		c-0.4,0.6-1,0.9-1.7,0.9s-1.3-0.3-1.7-0.9C224.5,322.3,224.3,321.4,224.3,320.2z M228,320.2c0-0.4,0-0.7-0.1-1.1
		c0-0.3-0.1-0.6-0.2-0.9c-0.1-0.3-0.2-0.5-0.4-0.6c-0.2-0.2-0.4-0.2-0.6-0.2c-0.3,0-0.5,0.1-0.6,0.2c-0.2,0.2-0.3,0.4-0.4,0.6
		c-0.1,0.3-0.2,0.6-0.2,0.9s-0.1,0.7-0.1,1.1s0,0.7,0.1,1.1c0,0.3,0.1,0.6,0.2,0.9c0.1,0.3,0.2,0.5,0.4,0.6c0.2,0.2,0.4,0.2,0.6,0.2
		c0.3,0,0.5-0.1,0.6-0.2c0.2-0.2,0.3-0.4,0.4-0.6c0.1-0.3,0.2-0.6,0.2-0.9C228,320.9,228,320.6,228,320.2z"/>
	<path class="st19" d="M259.5,323c0.6,0,1-0.1,1.3-0.4c0.3-0.2,0.4-0.6,0.4-0.9s-0.1-0.5-0.2-0.6c-0.1-0.2-0.2-0.3-0.4-0.4
		c-0.2-0.1-0.4-0.2-0.6-0.2s-0.5-0.1-0.7-0.1H259v-0.8h0.3c0.2,0,0.3,0,0.5-0.1c0.2,0,0.3-0.1,0.5-0.2c0.1-0.1,0.3-0.2,0.4-0.4
		c0.1-0.2,0.1-0.3,0.1-0.6c0-0.2,0-0.3-0.1-0.5c-0.1-0.1-0.2-0.2-0.3-0.3c-0.1-0.1-0.2-0.1-0.4-0.2c-0.1,0-0.3-0.1-0.5-0.1
		c-0.3,0-0.6,0-0.8,0.1c-0.2,0.1-0.4,0.2-0.6,0.3l-0.4-0.7c0.1-0.1,0.2-0.1,0.3-0.2c0.1-0.1,0.3-0.1,0.4-0.2
		c0.2-0.1,0.3-0.1,0.5-0.1s0.4-0.1,0.6-0.1c0.4,0,0.7,0,1,0.1s0.5,0.2,0.7,0.4c0.2,0.2,0.3,0.4,0.4,0.6s0.1,0.5,0.1,0.7
		c0,0.4-0.1,0.7-0.3,0.9c-0.2,0.3-0.5,0.5-0.8,0.6c0.2,0.1,0.4,0.1,0.5,0.2c0.2,0.1,0.3,0.2,0.4,0.4c0.1,0.2,0.2,0.3,0.3,0.5
		c0.1,0.2,0.1,0.4,0.1,0.7c0,0.3-0.1,0.6-0.2,0.8c-0.1,0.3-0.3,0.5-0.5,0.7s-0.5,0.3-0.8,0.4s-0.7,0.2-1.2,0.2c-0.2,0-0.4,0-0.5,0
		c-0.2,0-0.4-0.1-0.5-0.1c-0.2,0-0.3-0.1-0.4-0.1s-0.2-0.1-0.3-0.1l0.2-0.8c0.1,0.1,0.3,0.1,0.6,0.2C258.7,323,259.1,323,259.5,323z
		"/>
	<path class="st19" d="M263.3,321.3c0.1-0.3,0.3-0.6,0.5-1s0.5-0.8,0.8-1.2c0.3-0.4,0.6-0.8,0.9-1.2c0.3-0.4,0.6-0.8,1-1.1h0.9v4.4
		h0.8v0.8h-0.8v1.8h-0.9V322h-3.1L263.3,321.3L263.3,321.3z M266.4,317.8c-0.2,0.2-0.4,0.5-0.6,0.7c-0.2,0.3-0.4,0.5-0.6,0.8
		s-0.4,0.6-0.5,0.9c-0.2,0.3-0.3,0.6-0.5,0.9h2.2V317.8z"/>
	<path class="st19" d="M270.6,319.4c1,0,1.8,0.3,2.2,0.7c0.5,0.4,0.7,1,0.7,1.6c0,0.3-0.1,0.6-0.2,0.9s-0.3,0.5-0.5,0.7
		s-0.5,0.3-0.8,0.4s-0.7,0.2-1.2,0.2c-0.2,0-0.4,0-0.5,0c-0.2,0-0.3-0.1-0.5-0.1s-0.3-0.1-0.4-0.1s-0.2-0.1-0.3-0.1l0.2-0.8
		c0.1,0.1,0.3,0.1,0.6,0.2c0.3,0.1,0.6,0.1,1,0.1c0.3,0,0.6,0,0.8-0.1c0.2-0.1,0.4-0.2,0.5-0.3c0.1-0.1,0.2-0.2,0.3-0.4
		c0.1-0.2,0.1-0.3,0.1-0.5c0-0.3,0-0.5-0.1-0.7s-0.2-0.4-0.5-0.5c-0.2-0.1-0.5-0.2-0.9-0.3c-0.4-0.1-0.8-0.1-1.4-0.1
		c0-0.3,0.1-0.6,0.1-0.9s0-0.6,0.1-0.8c0-0.3,0-0.5,0.1-0.8c0-0.3,0-0.6,0-0.9h3.4v0.8h-2.6c0,0.1,0,0.2,0,0.4c0,0.2,0,0.3,0,0.5
		s0,0.4,0,0.5C270.6,319.2,270.6,319.3,270.6,319.4z"/>
	<g>
		<g>
			<defs>
				<rect id="SVGID_1_" x="186.9" y="167.3" width="158.6" height="139"/>
			</defs>
			<clipPath id="SVGID_2_">
				<use xlink:href="#SVGID_1_"  style="overflow:visible;"/>
			</clipPath>
			<polygon class="st20" points="297.3,260.4 277,277.1 254.8,261.6 260.1,247.5 261.2,242 263.3,231.3 285.6,230.7 286.6,234.6 
				289.2,244.8 			"/>
		</g>
		<g>
			<defs>
				<rect id="SVGID_3_" x="186.9" y="167.3" width="158.6" height="139"/>
			</defs>
			<clipPath id="SVGID_4_">
				<use xlink:href="#SVGID_3_"  style="overflow:visible;"/>
			</clipPath>
			<path class="st21" d="M295.4,203.3c0,18.8-9.3,34-20.7,34c-11.4,0-20.7-15.2-20.7-34s9.3-24.4,20.7-24.4
				C286.1,178.9,295.4,184.5,295.4,203.3z"/>
		</g>
		<g>
			<defs>
				<rect id="SVGID_5_" x="186.9" y="167.3" width="158.6" height="139"/>
			</defs>
			<clipPath id="SVGID_6_">
				<use xlink:href="#SVGID_5_"  style="overflow:visible;"/>
			</clipPath>
			<path class="st22" d="M297.5,187.2c1.9,6.4-3.1,35.1-5.9,40.9c-2.8,5.8-9,9.2-17.5,9.2c-10.8,0.1-14.5-5.1-16.7-8.2
				c-2.2-3.1-2.4-8.9-5.2-30.9s15-24.9,21.6-24.9s9.6-0.1,10.9,4.2C294.1,176.9,295.6,180.8,297.5,187.2z M276.8,190.4
				c-6,2.7-16.6-2.8-20.6,1.7s-1.6,18.6-0.2,24.6c0.5,2.4,7.4,0.5,11.6,2.7c-5.8,5.4,0,9.9,6.4,9.9c6.1,0,11.8-1.9,7.9-9.1
				c3-3.2,9.3-0.2,10.6-2.8c1.9-3.8,0.8-21.8,0.8-21.8c-2.5-0.7-8.3-7.7-8.3-12.9C285,182.7,282.8,187.7,276.8,190.4z"/>
		</g>
		<g>
			<defs>
				<rect id="SVGID_7_" x="186.9" y="167.3" width="158.6" height="139"/>
			</defs>
			<clipPath id="SVGID_8_">
				<use xlink:href="#SVGID_7_"  style="overflow:visible;"/>
			</clipPath>
			<path class="st23" d="M309.7,292c-0.6,0.2-1.2,0.4-1.7,0.6c0.3,2.7,0.6,8.9,1,14.7v0.7c0.1,1.6,0.2,3.2,0.3,4.6
				c0.2,2.6,0.4,4.8,0.6,6.1c0.6,3.1,1,6.2,1.3,9.2c0.9,7.5,1.2,13.8,1.2,13.8c-1.5,0-73.3,0-73.3,0l0.4-12.1l0.2-8l0.2-7.6l0.6-21
				c-0.6-0.2-1.7-0.4-3.1-0.7c-5.2-0.9-14.5-1.9-18-2.2c-0.9-0.1-1.4-0.1-1.4-0.1s7.9-32.4,12.8-37.6c8.9-5.5,18.1-7.6,30.3-10.3
				c0,0-0.8,4.5,1.5,8.4c5.5,9.3,23.5,7.7,25.9-2.8c0.6-2.5-0.1-5.5-0.1-5.5s25,5.1,29.8,10.7c3.8,6.3,10.7,33.9,10.7,33.9
				s-0.7,0.2-1.8,0.5C323.4,288.1,314.6,290.4,309.7,292z"/>
		</g>
		<g>
			<defs>
				<rect id="SVGID_9_" x="186.9" y="167.3" width="158.6" height="139"/>
			</defs>
			<clipPath id="SVGID_10_">
				<use xlink:href="#SVGID_9_"  style="overflow:visible;"/>
			</clipPath>
			<polygon class="st24" points="302.9,272.8 308,292.6 309,307.9 302.9,291.8 			"/>
		</g>
		<g>
			<defs>
				<rect id="SVGID_11_" x="186.9" y="167.3" width="158.6" height="139"/>
			</defs>
			<clipPath id="SVGID_12_">
				<use xlink:href="#SVGID_11_"  style="overflow:visible;"/>
			</clipPath>
			<polygon class="st25" points="244,303.7 241.3,315 239.7,321.5 240,313.9 240.6,292.9 244,271.3 			"/>
		</g>
		<g>
			<defs>
				<rect id="SVGID_13_" x="186.9" y="167.3" width="158.6" height="139"/>
			</defs>
			<clipPath id="SVGID_14_">
				<use xlink:href="#SVGID_13_"  style="overflow:visible;"/>
			</clipPath>
			<polygon class="st26" points="324.9,287.7 327,302.8 327,330 311.6,331.5 309,307.9 308,292.6 			"/>
		</g>
		<g>
			<defs>
				<rect id="SVGID_15_" x="186.9" y="167.3" width="158.6" height="139"/>
			</defs>
			<clipPath id="SVGID_16_">
				<use xlink:href="#SVGID_15_"  style="overflow:visible;"/>
			</clipPath>
			<polygon class="st27" points="223.4,290.3 221.6,302.8 221.6,330 237,331.5 239.6,307.9 240.6,292.6 			"/>
		</g>
	</g>
	<rect x="186.8" y="188.7" class="st28" width="56.3" height="23"/>
	<path class="st0" d="M205.7,205.3v1.6h-7.9v-13.1h1.8v11.5H205.7z"/>
	<path class="st0" d="M207.6,193.8h1.8v13.1h-1.8V193.8z"/>
	<path class="st0" d="M223.3,193.8c-0.5,1.4-0.9,2.7-1.4,3.8c-0.4,1.2-0.9,2.3-1.3,3.4c-0.4,1.1-0.8,2.1-1.2,3
		c-0.4,1-0.8,1.9-1.3,2.9h-1.7c-0.4-0.9-0.8-1.9-1.3-2.9c-0.4-1-0.8-2-1.2-3c-0.4-1.1-0.9-2.2-1.3-3.4c-0.4-1.2-0.9-2.5-1.4-3.8h2
		c0.7,2,1.3,3.9,2,5.7s1.3,3.6,2,5.2c0.7-1.6,1.4-3.3,2-5.2c0.7-1.8,1.3-3.8,2-5.7H223.3z"/>
	<path class="st0" d="M225.1,206.8v-13.1h8v1.6h-6.2v3.9h5.5v1.5h-5.5v4.5h6.6v1.6H225.1z"/>
	<circle class="st2" cx="213.5" cy="283" r="10.8"/>
	<path class="st0" d="M219.2,283.5c0.3-0.5,0.5-1.2,0.5-1.8c0-1.9-1.5-3.4-3.4-3.4c-1.2,0-2.2,0.6-2.8,1.5c-0.6-0.9-1.6-1.5-2.8-1.5
		c-1.9,0-3.4,1.5-3.4,3.4c0,0.8,0.3,1.5,0.7,2l0,0l5.3,5.9C213.2,289.6,219,283.8,219.2,283.5L219.2,283.5L219.2,283.5z"/>
	<circle class="st2" cx="306.2" cy="297.5" r="8.5"/>
	<path class="st0" d="M310.6,297.9c0.3-0.4,0.4-0.9,0.4-1.4c0-1.5-1.2-2.7-2.7-2.7c-0.9,0-1.7,0.5-2.2,1.2c-0.5-0.7-1.3-1.2-2.2-1.2
		c-1.5,0-2.7,1.2-2.7,2.7c0,0.6,0.2,1.2,0.5,1.6l0,0l4.2,4.6C305.9,302.7,310.5,298.1,310.6,297.9L310.6,297.9L310.6,297.9z"/>
	<circle class="st2" cx="427.1" cy="254.2" r="7"/>
	<path class="st0" d="M430.8,254.5c0.2-0.3,0.3-0.7,0.3-1.2c0-1.2-1-2.2-2.2-2.2c-0.8,0-1.4,0.4-1.8,0.9c-0.4-0.6-1.1-0.9-1.8-0.9
		c-1.2,0-2.2,1-2.2,2.2c0,0.5,0.2,1,0.4,1.3l0,0l3.4,3.8C427,258.4,430.7,254.7,430.8,254.5L430.8,254.5L430.8,254.5z"/>
	<path class="st2" d="M492,281.9c0-3-2.5-5.5-5.5-5.5s-5.5,2.5-5.5,5.5s2.5,5.5,5.5,5.5S492,285,492,281.9z"/>
	<path class="st0" d="M489.4,282.2c0.2-0.3,0.3-0.6,0.3-0.9c0-1-0.8-1.8-1.8-1.8c-0.6,0-1.1,0.3-1.4,0.7c-0.3-0.5-0.8-0.7-1.4-0.7
		c-1,0-1.8,0.8-1.8,1.8c0,0.4,0.1,0.8,0.4,1l0,0l2.7,3C486.3,285.3,489.3,282.3,489.4,282.2L489.4,282.2L489.4,282.2z"/>
	<ellipse class="st2" cx="359.1" cy="263.5" rx="11" ry="11"/>
	<path class="st0" d="M364.9,264c0.3-0.5,0.5-1.2,0.5-1.9c0-1.9-1.6-3.5-3.5-3.5c-1.2,0-2.2,0.6-2.9,1.5c-0.6-0.9-1.7-1.5-2.9-1.5
		c-1.9,0-3.5,1.6-3.5,3.5c0,0.8,0.3,1.5,0.7,2.1l0,0l5.4,6C358.8,270.2,364.7,264.2,364.9,264L364.9,264L364.9,264z"/>
	<ellipse class="st2" cx="433" cy="302.2" rx="10.1" ry="10.1"/>
	<path class="st0" d="M438.4,302.6c0.3-0.5,0.5-1.1,0.5-1.7c0-1.8-1.4-3.2-3.2-3.2c-1.1,0-2.1,0.5-2.6,1.4c-0.6-0.8-1.5-1.4-2.6-1.4
		c-1.8,0-3.2,1.4-3.2,3.2c0,0.7,0.2,1.4,0.7,1.9l0,0l5,5.5C432.7,308.4,438.2,302.9,438.4,302.6L438.4,302.6L438.4,302.6z"/>
	<circle class="st2" cx="201.7" cy="252.1" r="6.6"/>
	<path class="st0" d="M205.3,252.4c0.2-0.3,0.3-0.7,0.3-1.1c0-1.2-0.9-2.1-2.1-2.1c-0.7,0-1.3,0.4-1.7,0.9c-0.4-0.5-1-0.9-1.7-0.9
		c-1.2,0-2.1,0.9-2.1,2.1c0,0.5,0.2,0.9,0.4,1.3l0,0l3.3,3.6C201.6,256.2,205.1,252.6,205.3,252.4L205.3,252.4L205.3,252.4z"/>
	<circle class="st2" cx="460.1" cy="236.6" r="10.3"/>
	<path class="st0" d="M465.5,237.1c0.3-0.5,0.5-1.1,0.5-1.7c0-1.8-1.5-3.3-3.3-3.3c-1.1,0-2.1,0.6-2.7,1.4c-0.6-0.8-1.6-1.4-2.7-1.4
		c-1.8,0-3.3,1.5-3.3,3.3c0,0.7,0.3,1.4,0.7,1.9l0,0l5,5.6C459.8,242.9,465.3,237.3,465.5,237.1L465.5,237.1L465.5,237.1z"/>
	<circle class="st10" cx="246.6" cy="256.5" r="13.6"/>
	<path class="st0" d="M253.7,251.4c-1.3-1.1-5.2,0.6-5.2,0.6c0.7-1.5,0.5-4.7-0.5-4.7c-1.6,0-0.6,5.2-5.5,7v7c0,0,10,2,11.2,0.3
		C254.8,259.8,255,252.5,253.7,251.4z"/>
	<rect x="238.2" y="253.8" class="st0" width="3.6" height="7.8"/>
	<circle class="st10" cx="286.8" cy="268" r="11.3"/>
	<path class="st0" d="M292.8,263.7c-1.1-0.9-4.3,0.5-4.3,0.5c0.6-1.2,0.4-3.9-0.4-3.9c-1.3,0-0.5,4.3-4.6,5.8v5.8
		c0,0,8.3,1.6,9.3,0.2C293.6,270.7,293.8,264.6,292.8,263.7z"/>
	<rect x="279.9" y="265.7" class="st0" width="3" height="6.5"/>
	<circle class="st10" cx="201.1" cy="292.3" r="7.6"/>
	<path class="st0" d="M205,289.5c-0.7-0.6-2.9,0.3-2.9,0.3c0.4-0.8,0.3-2.6-0.3-2.6c-0.9,0-0.3,2.9-3.1,3.9v3.9c0,0,5.6,1.1,6.2,0.1
		S205.7,290.1,205,289.5z"/>
	<rect x="196.4" y="290.8" class="st0" width="2" height="4.3"/>
	<circle class="st10" cx="336.3" cy="281.5" r="11.3"/>
	<path class="st0" d="M342.2,277.3c-1.1-0.9-4.3,0.5-4.3,0.5c0.6-1.2,0.4-3.9-0.4-3.9c-1.3,0-0.5,4.3-4.6,5.8v5.8
		c0,0,8.3,1.6,9.3,0.2C343,284.2,343.3,278.2,342.2,277.3z"/>
	<rect x="329.3" y="279.3" class="st0" width="3" height="6.5"/>
	<circle class="st10" cx="441.5" cy="275.7" r="11.3"/>
	<path class="st0" d="M447.4,271.4c-1.1-0.9-4.3,0.5-4.3,0.5c0.6-1.2,0.4-3.9-0.4-3.9c-1.3,0-0.5,4.3-4.6,5.8v5.8
		c0,0,8.3,1.6,9.3,0.2C448.3,278.4,448.5,272.3,447.4,271.4z"/>
	<rect x="434.5" y="273.4" class="st0" width="3" height="6.5"/>
	<circle class="st10" cx="480.7" cy="202.7" r="6.4"/>
	<path class="st0" d="M484.1,200.3c-0.6-0.5-2.5,0.3-2.5,0.3c0.3-0.7,0.2-2.2-0.2-2.2c-0.7,0-0.3,2.5-2.6,3.3v3.3
		c0,0,4.8,0.9,5.3,0.1C484.5,204.3,484.7,200.8,484.1,200.3z"/>
	<rect x="476.7" y="201.4" class="st0" width="1.7" height="3.7"/>
	<circle class="st10" cx="341.4" cy="226.3" r="6.4"/>
	<path class="st0" d="M344.7,223.9c-0.6-0.5-2.5,0.3-2.5,0.3c0.3-0.7,0.2-2.2-0.2-2.2c-0.7,0-0.3,2.5-2.6,3.3v3.3
		c0,0,4.8,0.9,5.3,0.1C345.2,227.9,345.4,224.4,344.7,223.9z"/>
	<rect x="337.4" y="225.1" class="st0" width="1.7" height="3.7"/>
	<circle class="st10" cx="399" cy="272" r="9.5"/>
	<path class="st0" d="M403.9,268.5c-0.9-0.7-3.6,0.4-3.6,0.4c0.5-1,0.3-3.3-0.3-3.3c-1.1,0-0.4,3.7-3.9,4.9v4.9c0,0,7,1.4,7.8,0.2
		C404.7,274.3,404.8,269.2,403.9,268.5z"/>
	<rect x="393.1" y="270.1" class="st0" width="2.5" height="5.5"/>
	<circle class="st10" cx="412.9" cy="218.7" r="9.5"/>
	<path class="st0" d="M417.8,215.2c-0.9-0.7-3.6,0.4-3.6,0.4c0.5-1,0.3-3.3-0.3-3.3c-1.1,0-0.4,3.7-3.9,4.9v4.9c0,0,7,1.4,7.8,0.2
		C418.6,221,418.7,215.9,417.8,215.2z"/>
	<rect x="407" y="216.8" class="st0" width="2.5" height="5.5"/>
	<ellipse class="st10" cx="476.4" cy="250" rx="13.4" ry="13.4"/>
	<path class="st0" d="M483.4,245c-1.3-1.1-5.2,0.6-5.2,0.6c0.7-1.5,0.5-4.7-0.5-4.7c-1.5,0-0.6,5.2-5.5,6.9v6.9c0,0,9.9,1.9,11,0.3
		C484.5,253.3,484.7,246.1,483.4,245z"/>
	<rect x="468.1" y="247.4" class="st0" width="3.6" height="7.7"/>
	<circle class="st10" cx="383.7" cy="285.1" r="13.1"/>
	<path class="st0" d="M390.6,280.2c-1.2-1-5,0.5-5,0.5c0.6-1.4,0.5-4.6-0.5-4.6c-1.5,0-0.6,5-5.3,6.8v6.7c0,0,9.7,1.9,10.8,0.3
		C391.6,288.3,391.8,281.3,390.6,280.2z"/>
	<rect x="375.6" y="282.5" class="st0" width="3.5" height="7.5"/>
	<circle class="st2" cx="258.1" cy="264.7" r="6.6"/>
	<path class="st0" d="M261.6,265c0.2-0.3,0.3-0.7,0.3-1.1c0-1.2-0.9-2.1-2.1-2.1c-0.7,0-1.3,0.4-1.7,0.9c-0.4-0.5-1-0.9-1.7-0.9
		c-1.2,0-2.1,0.9-2.1,2.1c0,0.5,0.2,0.9,0.4,1.3l0,0l3.3,3.6C257.9,268.7,261.5,265.1,261.6,265L261.6,265L261.6,265z"/>
	<path class="st2" d="M263.4,289.1c0-2.8-2.3-5.1-5.1-5.1c-2.8,0-5.1,2.3-5.1,5.1c0,2.8,2.3,5.1,5.1,5.1
		C261.1,294.2,263.4,291.9,263.4,289.1z"/>
	<path class="st0" d="M261,289.3c0.2-0.2,0.3-0.5,0.3-0.9c0-0.9-0.7-1.6-1.6-1.6c-0.5,0-1,0.3-1.3,0.7c-0.3-0.4-0.8-0.7-1.3-0.7
		c-0.9,0-1.6,0.7-1.6,1.6c0,0.4,0.1,0.7,0.3,1l0,0l2.5,2.8C258.2,292.2,260.9,289.4,261,289.3L261,289.3L261,289.3z"/>
	<path class="st12" d="M328,66.8c-13.5,0-24.5,11-24.5,24.5v124.2c0,4.9,6.4,6.7,8.9,2.5l13-21.8c4.6-5.9,11.8-9.4,19.3-9.4h101.1
		c13.5,0,24.5-11,24.5-24.5v-71c0-13.5-11-24.5-24.5-24.5H328z"/>
	<rect x="328.3" y="91" class="st0" width="119.6" height="12.3"/>
	<rect x="328.3" y="117.7" class="st0" width="119.6" height="12.3"/>
	<rect x="328.3" y="144.3" class="st0" width="119.6" height="12.3"/>
	<path class="st29" d="M183.8,152l4.4,6.2l2.8,1c1,0.4,2.4,2,2,3c-1.9,5.3-8.2,19.6-9.8,21.7c0,0-2.1-1.8-1.4-3.6
		c0.8-1.8,1.9-15.3,1.9-15.3l-4.2-5.7L183.8,152z"/>
	<path class="st30" d="M194.2,161.7c0,0-2.8-3.3-4.5-3.1c0,0,1.5,2.3,0.9,5.4c-0.8,2.6-2.9,10.9-7.5,9.1c-0.8,2.9-1.8,8.6-1.4,11.4
		c0,0,1.5,0.3,2.3-0.6c0,0,3.2-4.4,4.2-6.1l5.3-13.1l3.8-0.1l0.7-1.5L194.2,161.7z"/>
	<path class="st31" d="M205.7,106.5c0,0-49.5,0.8-55,3.7c-5.5,2.8-0.8,9.5,6.6,19.6c7.4,10.1,23.6,33.5,23.6,33.5l6.4-7.3L169,123.5
		c0,0,44.7,8.4,49,3.3c4.3-5.1,5.9-12,2-20.1L205.7,106.5z"/>
	<path class="st6" d="M169,27.6c-4.2-0.1-13.9,16.9,13.8,26.5c9.4,3.3,27.5-0.7,31.2-5.7c0,0-15-32.6-30.9-31
		C169.9,18.7,169,27.6,169,27.6z"/>
	<path class="st29" d="M136.2,99.1l6.3-4l8.3,1.3l28.2-5.8l1,8.3l-28.1,0.8l-3,0.7c-0.9,0.2-1.8,0.1-2.6-0.4l-3.8-2l-5.5,3.2
		L136.2,99.1z"/>
	<path class="st13" d="M187.2,54.6c-6.5,0.8-3.3,10.5-6.1,34.3l-27.5,4.6l1.5,6.7c0,0,29.8-0.4,34.3-1.1
		C194.5,86.7,198.2,53.1,187.2,54.6z"/>
	<path class="st29" d="M199.3,53.3c-2.9,2.7-2.4,6-6.6,5.8c-6.6,0.9-6.4-7.7-6.4-7.7c-2.5,0.8-7.2,1.3-10.9-4.3
		c-4.2-6.3-5.4-12-6-17.3c-0.4-3.4,1.1-5.7,6.9-7.3c5.8-1.6,10.1,0.1,14.9,6.3c3.9,5.1,4.6,17,4.6,17
		C196.7,47.9,199.3,53.3,199.3,53.3z"/>
	<path class="st32" d="M223.1,111c0,0-14.2,0.1-21.4-0.7c-2.7-21.5-5-24.7-5-24.7c-7.4-0.9-9.6-3.3-9.6-6.8
		c-1.2-14.3-3.2-22.2-3.2-22.2c1-1.6,2.8-1.9,2.8-1.9s0.7,5,5.9,4.4c5.6-0.7,3-7,3-7c3-1.9,6.1-2.1,9.4-1.4c3.3,0.7,6.1,2.8,8.3,5.3
		c5.3,5.9,5.5,12.1,6.4,19.9c0.9,7.9-0.6,10.8-0.1,20.4C220,103.1,222.6,109.3,223.1,111z"/>
	<path class="st29" d="M158.6,109.3l3.7-6c0.5-0.6,1.2-1.1,2-1.2l7.4-1.2l31-5.2l0.3,7.9l-29.2,0.5l-2.7,1.7
		c-0.8,0.5-1.8,0.7-2.7,0.5l-4.5-1l-4.3,5.3L158.6,109.3z"/>
	<path class="st12" d="M200.5,55.5c1.3-2.9,2.5-4.8,5.9-4.7c9.6,0.3,3,14.6,9.8,42.3c0.7,2.8,1.1,10.3-6.9,10.8
		c-8,0.4-30.7,2.9-30.7,2.9l-3.1-9.2l27.9-3.9C203.3,93.8,197.2,62.9,200.5,55.5z"/>
	<path class="st9" d="M199.5,52.4c-10.6,2.8-8.6-7.7-8.6-7.7c3.9,1.1,3.3-8.7-0.7-9.4c-2.6-0.5-2.2,3.6-2.2,3.6
		c-9.5,5.3-20.4-5.3-19-12.5c0.8-3.9,1.8-6.4,6.4-9c5.6-3.1,10.9-1.6,15.7,0.5c10.3,4.5,10,15.4,20.9,16.3
		c24.8,2.2,6.2,13.7,20,18.4c7.9,2.7,15,3.4,15,20.3c0,16.5-15.5,14.8-24,12.6c-11-2.9-9.4-17.2-11.3-24.4
		C209.3,52,206.5,50.5,199.5,52.4z"/>
	<path class="st29" d="M168,172.5l0.6,6.4l0.9,2.8c0.3,1-0.2,3.1-1.2,3.4c-5.4,1.6-20.6,5.2-23.2,5.2c0,0,0.1-2.8,2-3.2
		c1.9-0.5,13.4-7.7,13.4-7.7V174L168,172.5z"/>
	<path class="st30" d="M169.6,186.7c0,0,0.3-5.2-0.5-6.6c0,0-1,2.9-3.8,4.3c-2.6,0.9-10.5,4.2-11.8-0.6c-2.8,1.1-8,3.7-9.9,5.7
		c0,0,0.6,1.4,1.9,1.5c0,0,5.4-0.1,7.4-0.3l14.2-2.9l1.8,2.3l1.6-0.4L169.6,186.7z"/>
	<path class="st2" d="M223.1,111c2.5,8.3,8.1,24.3-10.7,23.2c-20.4-1.2-49.5-6.5-49.5-6.5l6.4,47.4L159,177c0,0-2.7-16.6-6.6-31.3
		c-3.8-14.8-12.3-29.3-1.1-33.3C162.6,108.3,223.1,111,223.1,111z"/>
	<path class="st4" d="M168.1,108.6h-41.6l-7.2-23.1c-0.6-1.9,0.8-3.9,2.9-3.9h35.3c1.3,0,2.5,0.9,2.9,2.1L168.1,108.6z"/>
	<path class="st16" d="M189.5,111h-61.3c-1,0-1.8-0.8-1.8-1.8v-0.6h63.1c0.5,0,0.8,0.4,0.8,0.8v0.8C190.4,110.6,190,111,189.5,111z"
		/>
	<path class="st2" d="M166.8,111h-38.5c-1,0-1.9-0.8-1.9-1.9v-0.6H168v1.1C168.1,110.4,167.5,111,166.8,111z"/>
</g>
</svg>
